<?xml version="1.0" encoding="UTF-8"?>
<svg id="svg77" xmlns="http://www.w3.org/2000/svg" viewBox="0 0 1440 1080">
  <defs>
    <style>
      .cls-1 {
        letter-spacing: -.07em;
      }

      .cls-2 {
        letter-spacing: -.03em;
      }

      .cls-3 {
        fill: #33463d;
      }

      .cls-3, .cls-4, .cls-5, .cls-6, .cls-7, .cls-8, .cls-9, .cls-10, .cls-11, .cls-12, .cls-13, .cls-14, .cls-15, .cls-16, .cls-17, .cls-18, .cls-19, .cls-20, .cls-21, .cls-22 {
        isolation: isolate;
      }

      .cls-3, .cls-4, .cls-5, .cls-8, .cls-11, .cls-13, .cls-14, .cls-15, .cls-16, .cls-17, .cls-18, .cls-19, .cls-20, .cls-21, .cls-22 {
        font-family: MalgunGothicBold, 'Malgun Gothic';
      }

      .cls-3, .cls-4, .cls-6, .cls-11, .cls-14, .cls-16, .cls-19, .cls-20, .cls-21 {
        font-size: 11px;
      }

      .cls-23, .cls-24, .cls-13, .cls-17, .cls-25 {
        fill: #fff;
      }

      .cls-26 {
        fill: #7f9188;
      }

      .cls-27, .cls-28, .cls-29, .cls-30, .cls-31, .cls-32, .cls-33 {
        stroke: #16845d;
      }

      .cls-27, .cls-34, .cls-29, .cls-30, .cls-31, .cls-35, .cls-32, .cls-33 {
        fill: none;
      }

      .cls-27, .cls-34, .cls-30 {
        stroke-width: 1.7px;
      }

      .cls-36 {
        fill: #e1f0f9;
      }

      .cls-36, .cls-37 {
        stroke: #dee8ee;
      }

      .cls-38 {
        letter-spacing: -.01em;
      }

      .cls-39 {
        fill: #edf8f2;
      }

      .cls-40 {
        fill: #dfe5e1;
      }

      .cls-28 {
        stroke-width: 1.5px;
      }

      .cls-28, .cls-41 {
        fill: #eaf5ef;
      }

      .cls-4 {
        fill: #6f7d76;
      }

      .cls-42 {
        fill: #e9f3f7;
      }

      .cls-5, .cls-13 {
        font-size: 20px;
      }

      .cls-5, .cls-15, .cls-18 {
        fill: #15241d;
      }

      .cls-43 {
        fill: #f0f8f3;
      }

      .cls-43, .cls-44 {
        stroke: #cfe4d8;
      }

      .cls-6 {
        fill: #9fb8ac;
      }

      .cls-6, .cls-7, .cls-9, .cls-10, .cls-12 {
        font-family: MalgunGothic, 'Malgun Gothic';
      }

      .cls-45 {
        letter-spacing: 0em;
      }

      .cls-46 {
        letter-spacing: -.04em;
      }

      .cls-47 {
        letter-spacing: -.11em;
      }

      .cls-48 {
        fill: #e8f7eb;
      }

      .cls-7 {
        fill: #6d7c74;
        font-size: 16px;
      }

      .cls-8 {
        fill: #205e46;
      }

      .cls-8, .cls-17, .cls-18, .cls-22 {
        font-size: 14px;
      }

      .cls-24 {
        stroke: #dee6e1;
      }

      .cls-34 {
        stroke: #a4b1aa;
        stroke-dasharray: 0 0 6 6;
      }

      .cls-34, .cls-29, .cls-30, .cls-31, .cls-35, .cls-32, .cls-33 {
        stroke-linecap: round;
      }

      .cls-34, .cls-31, .cls-35, .cls-32 {
        stroke-linejoin: round;
      }

      .cls-9 {
        fill: #c9d8d0;
      }

      .cls-9, .cls-10, .cls-12 {
        font-size: 12px;
      }

      .cls-10 {
        fill: #74837b;
      }

      .cls-11, .cls-49 {
        fill: #16845d;
      }

      .cls-50 {
        letter-spacing: -.03em;
      }

      .cls-51 {
        fill: #c3f4cf;
      }

      .cls-51, .cls-52 {
        stroke: #d9eadf;
      }

      .cls-29 {
        stroke-width: 1.4px;
      }

      .cls-44 {
        fill: #e6f4ec;
      }

      .cls-12 {
        fill: #cedcd5;
      }

      .cls-53 {
        fill: #143f31;
      }

      .cls-54 {
        fill: #fcfdfc;
      }

      .cls-55 {
        fill: #e1f2e8;
        stroke: #cde5d7;
      }

      .cls-14 {
        fill: #266b50;
      }

      .cls-56 {
        letter-spacing: 0em;
      }

      .cls-57 {
        fill: #ddf1e6;
      }

      .cls-15 {
        font-size: 38px;
      }

      .cls-58 {
        letter-spacing: -.02em;
      }

      .cls-37 {
        fill: #b5d4e2;
      }

      .cls-16, .cls-22 {
        fill: #24694e;
      }

      .cls-59 {
        fill: #a4b1aa;
      }

      .cls-60 {
        letter-spacing: 0em;
      }

      .cls-61 {
        fill: #e8f4ed;
      }

      .cls-62 {
        letter-spacing: -.02em;
      }

      .cls-63 {
        fill: #eef4f0;
      }

      .cls-35 {
        stroke: #7f9188;
        stroke-width: 2px;
      }

      .cls-64 {
        letter-spacing: -.01em;
      }

      .cls-19 {
        fill: #477688;
      }

      .cls-20 {
        fill: #33634d;
      }

      .cls-52 {
        fill: #e1f9e8;
      }

      .cls-25 {
        stroke: #dce6e0;
      }

      .cls-32 {
        stroke-width: 2.2px;
      }

      .cls-21 {
        fill: #070707;
      }

      .cls-33 {
        stroke-width: 1.8px;
      }

      .cls-65 {
        letter-spacing: -.02em;
      }
    </style>
  </defs>
  <rect id="rect1" class="cls-54" width="1440" height="1080"/>
  <text id="text1" class="cls-15" transform="translate(532.19 58)"><tspan x="0" y="0">LangGraph 처리 흐름</tspan></text>
  <text id="text2" class="cls-7" transform="translate(507.32 87)"><tspan x="0" y="0">질문 전처리 → 도메인 분기 → 근거 검색·계산 → 공통 응답</tspan></text>
  <rect id="rect2" class="cls-48" x="34" y="118" width="1372" height="224" rx="24" ry="24"/>
  <path id="rect3" class="cls-63" d="M63,107h98c8.28,0,15,6.72,15,15h0c0,8.28-6.72,15-15,15H63c-8.28,0-15-6.72-15-15h0c0-8.28,6.72-15,15-15Z"/>
  <text id="text3" class="cls-3" transform="translate(69.63 127)"><tspan x="0" y="0">공통 전처리 흐름</tspan></text>
  <g id="g4">
    <rect id="rect4" class="cls-53" x="62" y="160" width="210" height="82" rx="20" ry="20"/>
  </g>
  <circle id="circle4" class="cls-39" cx="102" cy="201" r="17"/>
  <circle id="circle5" class="cls-49" cx="96" cy="199" r="2.1"/>
  <circle id="circle6" class="cls-49" cx="102" cy="199" r="2.1"/>
  <circle id="circle7" class="cls-49" cx="108" cy="199" r="2.1"/>
  <text id="text7" class="cls-17" transform="translate(132 195)"><tspan x="0" y="0">사용자 질문</tspan></text>
  <text id="text8" class="cls-12" transform="translate(132 217)"><tspan x="0" y="0">질문 입력</tspan></text>
  <g id="g8">
    <rect id="rect8" class="cls-25" x="306" y="160" width="216" height="82" rx="20" ry="20"/>
  </g>
  <circle id="circle8" class="cls-41" cx="344" cy="201" r="18"/>
  <text id="text9" class="cls-18" transform="translate(376 195)"><tspan x="0" y="0">Initialize</tspan></text>
  <text id="text10" class="cls-10" transform="translate(376 217)"><tspan x="0" y="0">상태 · 카테고리 초기화</tspan></text>
  <g id="g10">
    <rect id="rect10" class="cls-25" x="556" y="160" width="216" height="82" rx="20" ry="20"/>
  </g>
  <circle id="circle10" class="cls-41" cx="594" cy="201" r="18"/>
  <text id="text11" class="cls-18" transform="translate(626 195)"><tspan x="0" y="0">Gua</tspan><tspan class="cls-60" x="26.23" y="0">r</tspan><tspan x="31.67" y="0">drail</tspan></text>
  <text id="text12" class="cls-10" transform="translate(626 217)"><tspan x="0" y="0">서비스 범위 판정</tspan></text>
  <g id="g12">
    <rect id="rect12" class="cls-25" x="806" y="160" width="236" height="82" rx="20" ry="20"/>
  </g>
  <circle id="circle12" class="cls-41" cx="844" cy="201" r="18"/>
  <text id="text13" class="cls-18" transform="translate(876 195)"><tspan x="0" y="0">Con</tspan><tspan class="cls-56" x="26.13" y="0">t</tspan><tspan x="31.45" y="0">extualize</tspan></text>
  <text id="text14" class="cls-10" transform="translate(876 217)"><tspan x="0" y="0">대화 맥락 → 독립 질문</tspan></text>
  <g id="g14">
    <rect id="rect14" class="cls-43" x="1076" y="154" width="252" height="94" rx="22" ry="22"/>
  </g>
  <circle id="circle14" class="cls-57" cx="1118" cy="201" r="20"/>
  <text id="text15" class="cls-18" transform="translate(1152 194)"><tspan class="cls-50" x="0" y="0">R</tspan><tspan x="8.77" y="0">ou</tspan><tspan class="cls-56" x="25.96" y="0">t</tspan><tspan x="31.28" y="0">er</tspan></text>
  <text id="text16" class="cls-10" transform="translate(1152 217)"><tspan class="cls-46" x="0" y="0">P</tspan><tspan x="6.37" y="0">olicy · Notice · </tspan><tspan class="cls-47" x="88.73" y="0">T</tspan><tspan x="93.76" y="0">ax</tspan></text>
  <path id="path16" class="cls-35" d="M272,201h34"/>
  <polygon id="polygon16" class="cls-26" points="306 201 298.5 205.12 298.5 196.88 306 201"/>
  <path id="path17" class="cls-35" d="M522,201h34"/>
  <polygon id="polygon17" class="cls-26" points="556 201 548.5 205.12 548.5 196.88 556 201"/>
  <path id="path18" class="cls-35" d="M772,201h34"/>
  <polygon id="polygon18" class="cls-26" points="806 201 798.5 205.12 798.5 196.88 806 201"/>
  <path id="path19" class="cls-35" d="M1042,201h34"/>
  <polygon id="polygon19" class="cls-26" points="1076 201 1068.5 205.12 1068.5 196.88 1076 201"/>
  <path id="path20" class="cls-34" d="M414,242v44h98"/>
  <polygon id="polygon20" class="cls-59" points="512 286 504.5 290.12 504.5 281.88 512 286"/>
  <rect id="rect20" class="cls-24" x="520" y="260" width="234" height="54" rx="16" ry="16"/>
  <text id="text20" class="cls-18" transform="translate(542 284)"><tspan class="cls-50" x="0" y="0">R</tspan><tspan class="cls-38" x="8.77" y="0">o</tspan><tspan x="17.28" y="0">admap C</tspan><tspan class="cls-38" x="76.81" y="0">o</tspan><tspan x="85.32" y="0">ach</tspan></text>
  <text id="text21" class="cls-10" transform="translate(542 302)"><tspan x="0" y="0">로드맵 질문은 바로 응답</tspan></text>
  <path id="path21" class="cls-34" d="M754,287h148"/>
  <polygon id="polygon21" class="cls-59" points="902 287 894.5 291.12 894.5 282.88 902 287"/>
  <path id="rect21" class="cls-61" d="M930,267h78c11.05,0,20,8.95,20,20h0c0,11.05-8.95,20-20,20h-78c-11.05,0-20-8.95-20-20h0c0-11.05,8.95-20,20-20Z"/>
  <text id="text22" class="cls-14" transform="translate(945.07 292)"><tspan x="0" y="0">응답 종료</tspan></text>
  <path id="path22" class="cls-32" d="M1202,248v112"/>
  <polygon id="polygon22" class="cls-49" points="1202 332.69 1196.02 321.81 1207.98 321.81 1202 332.69"/>
  <path id="path23" class="cls-32" d="M1202,360H212v30"/>
  <polygon id="polygon23" class="cls-49" points="212 390 207.88 382.5 216.12 382.5 212 390"/>
  <path id="path24" class="cls-32" d="M1202,360H534v30"/>
  <polygon id="polygon24" class="cls-49" points="534 390 529.88 382.5 538.12 382.5 534 390"/>
  <path id="path25" class="cls-32" d="M1202,360h-156v30"/>
  <polygon id="polygon25" class="cls-49" points="1046 390 1041.88 382.5 1050.12 382.5 1046 390"/>
  <g id="g25">
    <rect id="rect25" class="cls-52" x="62" y="390" width="300" height="456" rx="28" ry="28"/>
  </g>
  <text id="text25" class="cls-5" transform="translate(132 438)"><tspan x="0" y="0">정책 검색</tspan></text>
  <rect id="rect26" class="cls-23" x="86" y="486" width="252" height="72" rx="18" ry="18"/>
  <text id="text26" class="cls-18" transform="translate(112 514)"><tspan x="0" y="0">개인화 검색어</tspan></text>
  <text id="text27" class="cls-10" transform="translate(112 536)"><tspan x="0" y="0">사용자 조건 반영</tspan></text>
  <path id="path27" class="cls-35" d="M212,558v34"/>
  <polygon id="polygon27" class="cls-26" points="212 592 207.88 584.5 216.12 584.5 212 592"/>
  <rect id="rect27" class="cls-23" x="86" y="592" width="252" height="72" rx="18" ry="18"/>
  <text id="text28" class="cls-18" transform="translate(112 620)"><tspan x="0" y="0">Hyb</tspan><tspan class="cls-45" x="27.04" y="0">r</tspan><tspan x="32.6" y="0">id Sea</tspan><tspan class="cls-60" x="73.35" y="0">r</tspan><tspan x="78.79" y="0">ch</tspan></text>
  <text id="text29" class="cls-10" transform="translate(112 642)"><tspan x="0" y="0">Dense + BM25</tspan></text>
  <path id="path29" class="cls-35" d="M212,664v34"/>
  <polygon id="polygon29" class="cls-26" points="212 698 207.88 690.5 216.12 690.5 212 698"/>
  <rect id="rect29" class="cls-23" x="86" y="698" width="252" height="72" rx="18" ry="18"/>
  <text id="text30" class="cls-18" transform="translate(112 726)"><tspan x="0" y="0">RRF · </tspan><tspan class="cls-50" x="39.16" y="0">R</tspan><tspan x="47.93" y="0">erank</tspan></text>
  <text id="text31" class="cls-10" transform="translate(112 748)"><tspan x="0" y="0">근거 후보 최종 정렬</tspan></text>
  <g id="g31">
    <rect id="rect31" class="cls-36" x="386" y="390" width="296" height="456" rx="28" ry="28"/>
  </g>
  <text id="text32" class="cls-5" transform="translate(460.94 438)"><tspan x="0" y="0">공고 조회</tspan></text>
  <rect id="rect32" class="cls-23" x="410" y="502" width="248" height="86" rx="18" ry="18"/>
  <text id="text33" class="cls-18" transform="translate(436 534)"><tspan x="0" y="0">Bac</tspan><tspan class="cls-58" x="23.34" y="0">k</tspan><tspan x="30.9" y="0">end 공고 결과</tspan></text>
  <text id="text34" class="cls-10" transform="translate(436 558)"><tspan x="0" y="0">검색 · 필터링은 Bac</tspan><tspan class="cls-65" x="106.2" y="0">k</tspan><tspan x="112.01" y="0">end 담당</tspan></text>
  <path id="path34" class="cls-35" d="M534,599.58v33.45"/>
  <polygon id="polygon34" class="cls-26" points="534 638 529.88 630.5 538.12 630.5 534 638"/>
  <rect id="rect34" class="cls-23" x="410" y="648" width="248" height="86" rx="18" ry="18"/>
  <text id="text35" class="cls-18" transform="translate(436 680)"><tspan x="0" y="0">Ans</tspan><tspan class="cls-60" x="24.83" y="0">w</tspan><tspan x="35.9" y="0">er Con</tspan><tspan class="cls-56" x="80.17" y="0">t</tspan><tspan x="85.48" y="0">ext</tspan></text>
  <text id="text36" class="cls-10" transform="translate(436 704)"><tspan x="0" y="0">공고 정보를 답변에 사용</tspan></text>
  <path id="rect36" class="cls-42" d="M476,758h116c9.39,0,17,7.61,17,17h0c0,9.39-7.61,17-17,17h-116c-9.39,0-17-7.61-17-17h0c0-9.39,7.61-17,17-17Z"/>
  <text id="text37" class="cls-19" transform="translate(485.59 780)"><tspan class="cls-1" x="0" y="0">V</tspan><tspan x="6.61" y="0">ec</tspan><tspan class="cls-56" x="18.02" y="0">t</tspan><tspan x="22.2" y="0">or R</tspan><tspan class="cls-38" x="44.4" y="0">A</tspan><tspan x="52.01" y="0">G 미사용</tspan></text>
  <g id="g37">
    <rect id="rect37" class="cls-52" x="706" y="390" width="672" height="456" rx="28" ry="28"/>
  </g>
  <text id="text38" class="cls-5" transform="translate(779.35 438)"><tspan x="0" y="0">세금 질의·계산</tspan></text>
  <rect class="cls-23" x="872.7" y="470.87" width="331.61" height="54" rx="14.35" ry="14.35"/>
  <g>
    <text id="text39" class="cls-18" transform="translate(992.03 492.62)"><tspan x="0" y="0">질문 의도 판별</tspan></text>
    <text id="text40" class="cls-10" transform="translate(918.65 512.62)"><tspan x="0" y="0">설명 질문인지, 계산이 필요한 질문인지 판단</tspan></text>
  </g>
  <path id="path41" class="cls-32" d="M948.4,570h-66.06v40.97"/>
  <path id="path40" class="cls-35" d="M1042,528.43v18"/>
  <polygon id="polygon40" class="cls-26" points="1042 548.84 1037.88 541.34 1046.12 541.34 1042 548.84"/>
  <path id="rect40" class="cls-55" d="M968,550h148c11.05,0,20,8.95,20,20h0c0,11.05-8.95,20-20,20h-148c-11.05,0-20-8.95-20-20h0c0-11.05,8.95-20,20-20Z"/>
  <text id="text41" class="cls-22" transform="translate(987.37 575)"><tspan x="0" y="0">계산이 필요한가?</tspan></text>
  <polygon id="polygon41" class="cls-49" points="882.33 616 878.21 608.5 886.45 608.5 882.33 616"/>
  <text id="text42" class="cls-11" transform="translate(888 560)"><tspan x="0" y="0">NO</tspan></text>
  <path id="path42" class="cls-32" d="M1136,570h55v40.1"/>
  <polygon id="polygon42" class="cls-49" points="1191 616 1186.88 608.5 1195.12 608.5 1191 616"/>
  <text id="text43" class="cls-11" transform="translate(1195 560)"><tspan x="0" y="0">YES</tspan></text>
  <rect id="rect43" class="cls-23" x="792" y="616" width="184" height="58" rx="16" ry="16"/>
  <text id="text44" class="cls-18" transform="translate(816 642)"><tspan x="0" y="0">근거 검색</tspan></text>
  <text id="text45" class="cls-10" transform="translate(816 662)"><tspan x="0" y="0">Cache + Hybrid </tspan><tspan class="cls-2" x="90.19" y="0">R</tspan><tspan x="97.15" y="0">etrie</tspan><tspan class="cls-62" x="121.32" y="0">v</tspan><tspan x="126.94" y="0">al</tspan></text>
  <path id="path45" class="cls-35" d="M884,674v30"/>
  <polygon id="polygon45" class="cls-26" points="884 704 879.88 696.5 888.12 696.5 884 704"/>
  <rect id="rect45" class="cls-23" x="792" y="704" width="184" height="58" rx="16" ry="16"/>
  <text id="text46" class="cls-18" transform="translate(816 730)"><tspan x="0" y="0">근거 검증</tspan></text>
  <text id="text47" class="cls-10" transform="translate(816 750)"><tspan x="0" y="0">Evidence Check</tspan></text>
  <path id="path47" class="cls-34" d="M792,733h-20v-88h20"/>
  <path id="path52" class="cls-32" d="M1191,674v31.1"/>
  <polygon id="polygon47" class="cls-59" points="792 645 784.5 649.12 784.5 640.88 792 645"/>
  <text id="text48" class="cls-11" transform="translate(719.87 688)"><tspan x="0" y="0">근거 부족 시</tspan></text>
  <text id="text49" class="cls-11" transform="translate(720.13 704)"><tspan x="0" y="0">재검색</tspan></text>
  <path id="path51" class="cls-34" d="M1116,645h-73.29v79.24h-58.77"/>
  <rect id="rect49" class="cls-23" x="1097.42" y="616" width="184" height="58" rx="16" ry="16"/>
  <text id="text50" class="cls-18" transform="translate(1121.42 642)"><tspan x="0" y="0">계산 계획</tspan></text>
  <text id="text51" class="cls-10" transform="translate(1121.42 662)"><tspan x="0" y="0">필요 입력값 정리</tspan></text>
  <polygon id="polygon51" class="cls-59" points="978 724.24 985.5 720.12 985.5 728.36 978 724.24"/>
  <text id="text52" class="cls-4" transform="translate(976 682)"><tspan x="0" y="0">법적 근거가 </tspan><tspan x="0" y="13.2">필요한 계산</tspan></text>
  <polygon id="polygon52" class="cls-49" points="1191 710 1186.88 702.5 1195.12 702.5 1191 710"/>
  <text id="text53" class="cls-11" transform="translate(1220 694)"><tspan x="0" y="0">직접 계산</tspan></text>
  <path id="path53" class="cls-32" d="M976,741.76h98.71"/>
  <polygon id="polygon53" class="cls-49" points="1080.58 741.76 1073.08 745.88 1073.08 737.64 1080.58 741.76"/>
  <text id="text54" class="cls-11" transform="translate(980.34 758.16)"><tspan x="0" y="0">근거 확인 후 계산</tspan></text>
  <rect id="rect54" class="cls-44" x="1082" y="710" width="218" height="58" rx="16" ry="16"/>
  <path id="rect56" class="cls-40" d="M809,794h150c9.39,0,17,7.61,17,17h0c0,9.39-7.61,17-17,17h-150c-9.39,0-17-7.61-17-17h0c0-9.39,7.61-17,17-17Z"/>
  <text id="text55" class="cls-8" transform="translate(1108 736)"><tspan x="0" y="0">Calcula</tspan><tspan class="cls-56" x="47.17" y="0">t</tspan><tspan x="52.49" y="0">or</tspan></text>
  <text id="text56" class="cls-10" transform="translate(1108 756)"><tspan x="0" y="0">검증된 입력으로 결정적 계산</tspan></text>
  <text id="text57" class="cls-21" transform="translate(847.13 816)"><tspan x="0" y="0">근거 기반 답변</tspan></text>
  <path id="rect57" class="cls-40" d="M1099,794h184c9.39,0,17,7.61,17,17h0c0,9.39-7.61,17-17,17h-184c-9.39,0-17-7.61-17-17h0c0-9.39,7.61-17,17-17Z"/>
  <text id="text58" class="cls-16" transform="translate(1133.83 816)"><tspan x="0" y="0">계산 결과 → LLM 전달</tspan></text>
  <path id="path58" class="cls-32" d="M884,758.25v32"/>
  <polygon id="polygon58" class="cls-49" points="884 792.74 879.88 785.24 888.12 785.24 884 792.74"/>
  <polygon id="polygon58-2" data-name="polygon58" class="cls-49" points="884 873.26 879.88 865.76 888.12 865.76 884 873.26"/>
  <path id="path59" class="cls-32" d="M1191,771.08v16.89"/>
  <polygon id="polygon59" class="cls-49" points="1191 794 1186.88 786.5 1195.12 786.5 1191 794"/>
  <path id="path60" class="cls-32" d="M212,846v77.88h338.77"/>
  <polygon id="polygon60" class="cls-49" points="588 900 580.5 904.12 580.5 895.88 588 900"/>
  <path id="path61" class="cls-35" d="M534,846v42h16.77"/>
  <polygon id="polygon61" class="cls-26" points="556 888 548.5 892.12 548.5 883.88 556 888"/>
  <path id="path62" class="cls-32" d="M884,828v40.97"/>
  <polygon id="polygon62" class="cls-49" points="852 900 847.88 892.5 856.12 892.5 852 900"/>
  <path id="path63" class="cls-32" d="M1191,829.77v100h-298.23"/>
  <polygon id="polygon63" class="cls-49" points="885.92 929.77 893.42 925.65 893.42 933.89 885.92 929.77"/>
  <polygon id="polygon63-2" data-name="polygon63" class="cls-49" points="555.14 923.88 547.64 928 547.64 919.76 555.14 923.88"/>
  <g id="g63">
    <rect id="rect63" class="cls-53" x="556" y="876" width="328" height="104" rx="24" ry="24"/>
  </g>
  <text id="text63" class="cls-13" transform="translate(623.64 911)"><tspan x="0" y="0">LLM Unified Ans</tspan><tspan class="cls-60" x="158.05" y="0">w</tspan><tspan x="173.86" y="0">er</tspan></text>
  <text id="text64" class="cls-9" transform="translate(599.03 936)"><tspan x="0" y="0">검색 근거 + 계산 결과를 바탕으로 응답 생성</tspan></text>
  <text id="text65" class="cls-6" transform="translate(665.49 958)"><tspan x="0" y="0">출처 · status · fall</tspan><tspan class="cls-64" x="86.09" y="0">b</tspan><tspan x="92.54" y="0">ack</tspan></text>
  <path id="path65" class="cls-35" d="M720,980v26"/>
  <polygon id="polygon65" class="cls-26" points="720 1006 715.88 998.5 724.12 998.5 720 1006"/>
  <path id="rect65" class="cls-63" d="M678,1006h84c9.94,0,18,8.06,18,18h0c0,9.94-8.06,18-18,18h-84c-9.94,0-18-8.06-18-18h0c0-9.94,8.06-18,18-18Z"/>
  <text id="text66" class="cls-20" transform="translate(696.07 1029)"><tspan x="0" y="0">응답 완료</tspan></text>
  <line id="line67" class="cls-30" x1="335" y1="194" x2="353" y2="194"/>
  <circle id="circle67" class="cls-28" cx="340" cy="194" r="2.3"/>
  <line id="line68" class="cls-30" x1="335" y1="201" x2="353" y2="201"/>
  <circle id="circle68" class="cls-28" cx="349" cy="201" r="2.3"/>
  <line id="line69" class="cls-30" x1="335" y1="208" x2="353" y2="208"/>
  <circle id="circle69" class="cls-28" cx="343" cy="208" r="2.3"/>
  <path id="path69" class="cls-32" d="M586,201l6,6,11-13"/>
  <rect id="rect69" class="cls-27" x="836" y="192" width="16" height="18" rx="2" ry="2"/>
  <line id="line70" class="cls-29" x1="839" y1="197" x2="849" y2="197"/>
  <line id="line71" class="cls-29" x1="839" y1="202" x2="849" y2="202"/>
  <line id="line72" class="cls-29" x1="839" y1="207" x2="849" y2="207"/>
  <line id="line73" class="cls-33" x1="1118" y1="209" x2="1118" y2="201"/>
  <line id="line74" class="cls-33" x1="1118" y1="201" x2="1111" y2="194"/>
  <line id="line75" class="cls-33" x1="1118" y1="201" x2="1125" y2="194"/>
  <circle id="circle75" class="cls-49" cx="1118" cy="210" r="2.3"/>
  <circle id="circle76" class="cls-49" cx="1110" cy="193" r="2.3"/>
  <circle id="circle77" class="cls-49" cx="1126" cy="193" r="2.3"/>
  <circle class="cls-51" cx="101.19" cy="429.94" r="22.06"/>
  <circle class="cls-37" cx="426.58" cy="428.87" r="22.06"/>
  <circle class="cls-51" cx="745.93" cy="428.87" r="22.06"/>
  <g id="policy_document" data-name="policy document">
    <g>
      <path class="cls-31" d="M92.8,418.08h11.36l5.43,5.43v18.27h-16.79v-23.7Z"/>
      <path class="cls-31" d="M104.15,418.08v5.93h5.43m-12.84,4.94h8.89m-8.89,3.95h8.89m-8.89,3.95h6.42"/>
    </g>
  </g>
  <g>
    <g>
      <path class="cls-49" d="M412.83,424.93v3.55c0,.9,.73,1.62,1.62,1.62h4.81c.24,0,.48,.05,.69,.16l10.27,4.86c1.08,.51,2.32-.28,2.32-1.47v-13.91c0-1.19-1.24-1.98-2.32-1.47l-10.27,4.86c-.22,.1-.45,.16-.69,.16h-4.81c-.9,0-1.62,.73-1.62,1.62Z"/>
      <path class="cls-49" d="M418.95,430.1l2.38,8.34c.2,.7,.84,1.18,1.56,1.18h2.06c1.08,0,1.86-1.03,1.56-2.07l-2.13-7.45"/>
    </g>
    <line class="cls-31" x1="434.5" y1="420.67" x2="438.26" y2="418.34"/>
    <line class="cls-31" x1="438.13" y1="436.19" x2="434.38" y2="433.86"/>
    <line class="cls-31" x1="435.28" y1="425.12" x2="440.32" y2="424.07"/>
    <line class="cls-31" x1="440.32" y1="431.05" x2="435.28" y2="429.99"/>
  </g>
  <g id="tax_calculator" data-name="tax calculator">
    <g>
      <path class="cls-49" d="M751.77,442.62h-12.83c-1.84,0-3.33-1.49-3.33-3.33v-19.74c0-1.84,1.49-3.33,3.33-3.33h12.83c1.84,0,3.33,1.49,3.33,3.33v19.74c0,1.84-1.49,3.33-3.33,3.33Zm-12.83-24.68c-.88,0-1.6,.72-1.6,1.6v19.74c0,.88,.72,1.6,1.6,1.6h12.83c.88,0,1.6-.72,1.6-1.6v-19.74c0-.88-.72-1.6-1.6-1.6h-12.83Z"/>
      <path class="cls-49" d="M750.29,426.34h-9.87c-1.02,0-1.85-.83-1.85-1.85v-2.96c0-1.02,.83-1.85,1.85-1.85h9.87c1.02,0,1.85,.83,1.85,1.85v2.96c0,1.02-.83,1.85-1.85,1.85Zm-9.87-4.94c-.07,0-.12,.06-.12,.12v2.96c0,.07,.06,.12,.12,.12h9.87c.07,0,.12-.06,.12-.12v-2.96c0-.07-.06-.12-.12-.12h-9.87Z"/>
      <circle class="cls-49" cx="740.92" cy="429.91" r=".99"/>
      <circle class="cls-49" cx="745.36" cy="429.91" r=".99"/>
      <circle class="cls-49" cx="749.8" cy="429.91" r=".99"/>
      <circle class="cls-49" cx="740.92" cy="434.35" r=".99"/>
      <circle class="cls-49" cx="745.36" cy="434.35" r=".99"/>
      <circle class="cls-49" cx="749.8" cy="434.35" r=".99"/>
      <circle class="cls-49" cx="740.92" cy="438.8" r=".99"/>
      <path class="cls-49" d="M749.8,439.66h-4.44c-.48,0-.86-.39-.86-.86s.39-.86,.86-.86h4.44c.48,0,.86,.39,.86,.86s-.39,.86-.86,.86Z"/>
    </g>
  </g>
</svg>